<svg width="258" height="70" viewBox="0 0 258 70" fill="none" xmlns="http://www.w3.org/2000/svg">
<path d="M33.48 56V16.8H51.12C53.808 16.8 56.1973 17.3787 58.288 18.536C60.3787 19.6933 62.0213 21.28 63.216 23.296C64.4107 25.312 65.008 27.6267 65.008 30.24C65.008 32.9653 64.4107 35.392 63.216 37.52C62.0213 39.648 60.3787 41.328 58.288 42.56C56.1973 43.7547 53.808 44.352 51.12 44.352H45.576V56H33.48ZM45.352 34.048H48.88C49.5893 34.048 50.224 33.9173 50.784 33.656C51.344 33.3573 51.7733 32.9467 52.072 32.424C52.408 31.9013 52.576 31.248 52.576 30.464C52.576 29.68 52.408 29.0453 52.072 28.56C51.7733 28.0747 51.344 27.72 50.784 27.496C50.224 27.2347 49.5893 27.104 48.88 27.104H45.352V34.048ZM70.0266 56V16.8H99.3146V26.6H81.6186V46.2H100.323V56H70.0266ZM75.7946 40.768V31.584H97.2426V40.768H75.7946ZM105.753 56V16.8H116.561L134.593 41.72L132.017 40.936C131.83 39.4427 131.662 38.136 131.513 37.016C131.401 35.896 131.289 34.8693 131.177 33.936C131.102 32.9653 131.027 32.0133 130.953 31.08C130.915 30.1467 130.897 29.12 130.897 28C130.897 26.88 130.897 25.5733 130.897 24.08V16.8H142.545V56H131.625L111.745 28.56L116.281 29.904C116.467 31.2853 116.617 32.4987 116.729 33.544C116.878 34.552 116.99 35.4853 117.065 36.344C117.139 37.2027 117.195 38.0613 117.233 38.92C117.307 39.7413 117.345 40.6747 117.345 41.72C117.382 42.728 117.401 43.9227 117.401 45.304V56H105.753ZM149.846 56V16.8H179.134V26.6H161.438V46.2H180.142V56H149.846ZM155.614 40.768V31.584H177.062V40.768H155.614ZM179.972 56L195.708 16.8H205.229L220.853 56H208.868L202.596 38.864C202.186 37.7067 201.831 36.7173 201.532 35.896C201.234 35.0747 200.972 34.3093 200.748 33.6C200.525 32.8533 200.301 32.0693 200.076 31.248C199.852 30.3893 199.628 29.3813 199.405 28.224H201.309C201.085 29.3813 200.86 30.3893 200.636 31.248C200.412 32.0693 200.17 32.8533 199.909 33.6C199.684 34.3093 199.404 35.0747 199.068 35.896C198.77 36.7173 198.415 37.7067 198.004 38.864L191.732 56H179.972ZM187.812 50.176L191.34 41.944H209.54L212.732 50.176H187.812ZM222.557 56V16.8H240.925C243.65 16.8 246.077 17.3413 248.205 18.424C250.333 19.5067 251.994 20.9813 253.189 22.848C254.383 24.7147 254.981 26.8613 254.981 29.288C254.981 32.0133 254.383 34.4027 253.189 36.456C251.994 38.5093 250.333 40.1147 248.205 41.272C246.077 42.392 243.65 42.952 240.925 42.952H233.869V56H222.557ZM243.109 56L233.141 38.304L245.517 36.904L256.605 56H243.109ZM233.869 34.552H239.021C239.954 34.552 240.719 34.384 241.317 34.048C241.951 33.6747 242.418 33.1707 242.717 32.536C243.053 31.9013 243.221 31.136 243.221 30.24C243.221 29.4187 243.053 28.728 242.717 28.168C242.418 27.5707 241.933 27.1227 241.261 26.824C240.626 26.488 239.805 26.32 238.797 26.32H233.869V34.552Z" fill="#3A3F77"/>
<path d="M5.35775 31.0219C5.34095 32.0572 6.16668 32.9102 7.20208 32.9272C8.23748 32.9439 9.09045 32.1182 9.10725 31.0828L5.35775 31.0219ZM14.375 24.1348L14.3455 26.0096C14.3653 26.0099 14.3848 26.0099 14.4045 26.0096L14.375 24.1348ZM21.5175 31.0523L23.3925 31.0601C23.3925 31.0474 23.3925 31.0346 23.3923 31.0219L21.5175 31.0523ZM18.4575 36.7299L19.4825 38.2999L19.495 38.2917L18.4575 36.7299ZM12.2015 41.5024C11.1993 41.7624 10.5975 42.7859 10.8575 43.7882C11.1178 44.7907 12.141 45.3924 13.1435 45.1322L12.2015 41.5024ZM21.5175 41.6349L22.5638 43.1912L22.589 43.1737L21.5175 41.6349ZM1.875 48.0274H3.27129e-06C3.27129e-06 48.1674 0.0157037 48.3072 0.0468287 48.4437L1.875 48.0274ZM9.10725 31.0828C9.15348 28.2356 11.4983 25.9647 14.3455 26.0096L14.4045 22.2601C9.48725 22.1825 5.43755 26.1047 5.35775 31.0219L9.10725 31.0828ZM14.4045 26.0096C17.2518 25.9647 19.5965 28.2356 19.6428 31.0828L23.3923 31.0219C23.3125 26.1047 19.2628 22.1825 14.3455 22.2601L14.4045 26.0096ZM19.6425 31.0445C19.6355 32.7037 18.802 34.2499 17.42 35.1679L19.495 38.2917C21.9185 36.6819 23.3803 33.9697 23.3925 31.0601L19.6425 31.0445ZM17.4325 35.1599C14.8413 36.8517 13.797 38.6632 13.1143 40.0454C12.363 41.5664 12.375 41.4574 12.2015 41.5024L13.1435 45.1322C15.34 44.5622 16.0333 42.6034 16.4765 41.7062C16.988 40.6702 17.6513 39.4954 19.4825 38.2999L17.4325 35.1599ZM3.75 31.3849C3.74663 26.3405 7.29045 21.9879 12.231 20.97L11.4743 17.2971C4.79003 18.6743 -0.00457173 24.5614 3.27129e-06 31.3862L3.75 31.3849ZM12.231 20.97C17.1715 19.9521 22.1468 22.5483 24.1375 27.1832L27.5833 25.7032C24.8898 19.4325 18.1585 15.92 11.4743 17.2971L12.231 20.97ZM24.1375 27.1832C26.1283 31.8179 24.5858 37.2137 20.4463 40.0962L22.589 43.1737C28.1898 39.2739 30.2765 31.9739 27.5833 25.7032L24.1375 27.1832ZM20.4715 40.0787C16.2173 42.9387 14.5383 45.9562 13.4138 48.3072C12.8318 49.5239 12.5233 50.2572 12.1065 50.8454C11.776 51.3119 11.4545 51.5654 10.9103 51.7112L11.8798 55.3337C13.4093 54.9242 14.421 54.0654 15.1665 53.0129C15.8258 52.0824 16.3353 50.8899 16.7968 49.9249C17.7593 47.9124 19.068 45.5412 22.5638 43.1912L20.4715 40.0787ZM10.9103 51.7112C9.1041 52.1944 7.53373 52.1274 6.36625 51.5617C5.27153 51.0309 4.2282 49.9157 3.70318 47.6109L0.0468287 48.4437C0.771804 51.6264 2.41473 53.8137 4.73063 54.9362C6.97378 56.0234 9.5385 55.9602 11.8798 55.3337L10.9103 51.7112ZM3.75 48.0274V31.3849L3.27129e-06 31.3862V48.0274H3.75Z" fill="#3A3F77"/>
</svg>
